<svg width="75" height="46" viewBox="0 0 75 46" fill="none" xmlns="http://www.w3.org/2000/svg">
<path d="M16.9336 13.8555V8.75781H35.7031V12.7422C34.1536 14.2656 32.5781 16.4531 30.9766 19.3047C29.375 22.1562 28.151 25.1901 27.3047 28.4062C26.4714 31.6094 26.0612 34.474 26.0742 37H20.7812C20.8724 33.0417 21.6862 29.0052 23.2227 24.8906C24.7721 20.776 26.8359 17.0977 29.4141 13.8555H16.9336Z" fill="#1795EE"/>
<path d="M39.2773 29.6367L44.7461 29.0703C44.9023 30.3073 45.3646 31.2904 46.1328 32.0195C46.901 32.7357 47.7865 33.0938 48.7891 33.0938C49.9349 33.0938 50.9049 32.6315 51.6992 31.707C52.4935 30.7695 52.8906 29.3633 52.8906 27.4883C52.8906 25.7305 52.4935 24.4154 51.6992 23.543C50.918 22.6576 49.8958 22.2148 48.6328 22.2148C47.0573 22.2148 45.6445 22.9115 44.3945 24.3047L39.9414 23.6602L42.7539 8.75781H57.2656V13.8945H46.9141L46.0547 18.7578C47.2786 18.1458 48.5286 17.8398 49.8047 17.8398C52.2396 17.8398 54.3034 18.7253 55.9961 20.4961C57.6888 22.2669 58.5352 24.5651 58.5352 27.3906C58.5352 29.7474 57.8516 31.8503 56.4844 33.6992C54.6224 36.2253 52.0378 37.4883 48.7305 37.4883C46.0872 37.4883 43.9323 36.7786 42.2656 35.3594C40.599 33.9401 39.6029 32.0326 39.2773 29.6367Z" fill="#050809"/>
</svg>
