<svg width="75" height="46" viewBox="0 0 75 46" fill="none" xmlns="http://www.w3.org/2000/svg">
<path d="M19.8438 37H14.3555V16.3164C12.3503 18.1914 9.98698 19.5781 7.26562 20.4766V15.4961C8.69792 15.0273 10.2539 14.1419 11.9336 12.8398C13.6133 11.5247 14.7656 9.99479 15.3906 8.25H19.8438V37Z" fill="#050809"/>
<path d="M37.3438 8.25C40.1172 8.25 42.2852 9.23958 43.8477 11.2188C45.7096 13.5625 46.6406 17.4492 46.6406 22.8789C46.6406 28.2956 45.7031 32.1888 43.8281 34.5586C42.2786 36.5117 40.1172 37.4883 37.3438 37.4883C34.5573 37.4883 32.3112 36.4206 30.6055 34.2852C28.8997 32.1367 28.0469 28.3151 28.0469 22.8203C28.0469 17.4297 28.9844 13.5495 30.8594 11.1797C32.4089 9.22656 34.5703 8.25 37.3438 8.25ZM37.3438 12.8008C36.6797 12.8008 36.0872 13.0156 35.5664 13.4453C35.0456 13.862 34.6419 14.6172 34.3555 15.7109C33.9779 17.1302 33.7891 19.5195 33.7891 22.8789C33.7891 26.2383 33.9583 28.5495 34.2969 29.8125C34.6354 31.0625 35.0586 31.8958 35.5664 32.3125C36.0872 32.7292 36.6797 32.9375 37.3438 32.9375C38.0078 32.9375 38.6003 32.7292 39.1211 32.3125C39.6419 31.8828 40.0456 31.1211 40.332 30.0273C40.7096 28.6211 40.8984 26.2383 40.8984 22.8789C40.8984 19.5195 40.7292 17.2148 40.3906 15.9648C40.0521 14.7018 39.6224 13.862 39.1016 13.4453C38.5938 13.0156 38.0078 12.8008 37.3438 12.8008Z" fill="#C8170B"/>
<path d="M59.6094 8.25C62.3828 8.25 64.5508 9.23958 66.1133 11.2188C67.9753 13.5625 68.9062 17.4492 68.9062 22.8789C68.9062 28.2956 67.9688 32.1888 66.0938 34.5586C64.5443 36.5117 62.3828 37.4883 59.6094 37.4883C56.8229 37.4883 54.5768 36.4206 52.8711 34.2852C51.1654 32.1367 50.3125 28.3151 50.3125 22.8203C50.3125 17.4297 51.25 13.5495 53.125 11.1797C54.6745 9.22656 56.8359 8.25 59.6094 8.25ZM59.6094 12.8008C58.9453 12.8008 58.3529 13.0156 57.832 13.4453C57.3112 13.862 56.9076 14.6172 56.6211 15.7109C56.2435 17.1302 56.0547 19.5195 56.0547 22.8789C56.0547 26.2383 56.224 28.5495 56.5625 29.8125C56.901 31.0625 57.3242 31.8958 57.832 32.3125C58.3529 32.7292 58.9453 32.9375 59.6094 32.9375C60.2734 32.9375 60.8659 32.7292 61.3867 32.3125C61.9076 31.8828 62.3112 31.1211 62.5977 30.0273C62.9753 28.6211 63.1641 26.2383 63.1641 22.8789C63.1641 19.5195 62.9948 17.2148 62.6562 15.9648C62.3177 14.7018 61.888 13.862 61.3672 13.4453C60.8594 13.0156 60.2734 12.8008 59.6094 12.8008Z" fill="#1795EE"/>
</svg>
