<svg width="75" height="46" viewBox="0 0 75 46" fill="none" xmlns="http://www.w3.org/2000/svg">
<path d="M35.4688 31.9023V37H16.2305C16.4388 35.0729 17.0638 33.25 18.1055 31.5312C19.1471 29.7995 21.2044 27.5078 24.2773 24.6562C26.7513 22.3516 28.2682 20.7891 28.8281 19.9688C29.5833 18.8359 29.9609 17.7161 29.9609 16.6094C29.9609 15.3854 29.6289 14.4479 28.9648 13.7969C28.3138 13.1328 27.4089 12.8008 26.25 12.8008C25.1042 12.8008 24.1927 13.1458 23.5156 13.8359C22.8385 14.526 22.4479 15.6719 22.3438 17.2734L16.875 16.7266C17.2005 13.7057 18.2227 11.5378 19.9414 10.2227C21.6602 8.90755 23.8086 8.25 26.3867 8.25C29.2122 8.25 31.4323 9.01172 33.0469 10.5352C34.6615 12.0586 35.4688 13.9531 35.4688 16.2188C35.4688 17.5078 35.2344 18.7383 34.7656 19.9102C34.3099 21.069 33.5807 22.2865 32.5781 23.5625C31.9141 24.4089 30.7161 25.6263 28.9844 27.2148C27.2526 28.8034 26.1523 29.8581 25.6836 30.3789C25.2279 30.8997 24.8568 31.4076 24.5703 31.9023H35.4688ZM39.2773 29.6367L44.7461 29.0703C44.9023 30.3073 45.3646 31.2904 46.1328 32.0195C46.901 32.7357 47.7865 33.0938 48.7891 33.0938C49.9349 33.0938 50.9049 32.6315 51.6992 31.707C52.4935 30.7695 52.8906 29.3633 52.8906 27.4883C52.8906 25.7305 52.4935 24.4154 51.6992 23.543C50.918 22.6576 49.8958 22.2148 48.6328 22.2148C47.0573 22.2148 45.6445 22.9115 44.3945 24.3047L39.9414 23.6602L42.7539 8.75781H57.2656V13.8945H46.9141L46.0547 18.7578C47.2786 18.1458 48.5286 17.8398 49.8047 17.8398C52.2396 17.8398 54.3034 18.7253 55.9961 20.4961C57.6888 22.2669 58.5352 24.5651 58.5352 27.3906C58.5352 29.7474 57.8516 31.8503 56.4844 33.6992C54.6224 36.2253 52.0378 37.4883 48.7305 37.4883C46.0872 37.4883 43.9323 36.7786 42.2656 35.3594C40.599 33.9401 39.6029 32.0326 39.2773 29.6367Z" fill="#1795EE"/>
</svg>
