<svg width="75" height="46" viewBox="0 0 75 46" fill="none" xmlns="http://www.w3.org/2000/svg">
<path d="M17.0117 29.6367L22.4805 29.0703C22.6367 30.3073 23.099 31.2904 23.8672 32.0195C24.6354 32.7357 25.5208 33.0938 26.5234 33.0938C27.6693 33.0938 28.6393 32.6315 29.4336 31.707C30.2279 30.7695 30.625 29.3633 30.625 27.4883C30.625 25.7305 30.2279 24.4154 29.4336 23.543C28.6523 22.6576 27.6302 22.2148 26.3672 22.2148C24.7917 22.2148 23.3789 22.9115 22.1289 24.3047L17.6758 23.6602L20.4883 8.75781H35V13.8945H24.6484L23.7891 18.7578C25.013 18.1458 26.263 17.8398 27.5391 17.8398C29.974 17.8398 32.0378 18.7253 33.7305 20.4961C35.4232 22.2669 36.2695 24.5651 36.2695 27.3906C36.2695 29.7474 35.5859 31.8503 34.2188 33.6992C32.3568 36.2253 29.7721 37.4883 26.4648 37.4883C23.8216 37.4883 21.6667 36.7786 20 35.3594C18.3333 33.9401 17.3372 32.0326 17.0117 29.6367ZM48.4766 8.25C51.25 8.25 53.418 9.23958 54.9805 11.2188C56.8424 13.5625 57.7734 17.4492 57.7734 22.8789C57.7734 28.2956 56.8359 32.1888 54.9609 34.5586C53.4115 36.5117 51.25 37.4883 48.4766 37.4883C45.6901 37.4883 43.444 36.4206 41.7383 34.2852C40.0326 32.1367 39.1797 28.3151 39.1797 22.8203C39.1797 17.4297 40.1172 13.5495 41.9922 11.1797C43.5417 9.22656 45.7031 8.25 48.4766 8.25ZM48.4766 12.8008C47.8125 12.8008 47.2201 13.0156 46.6992 13.4453C46.1784 13.862 45.7747 14.6172 45.4883 15.7109C45.1107 17.1302 44.9219 19.5195 44.9219 22.8789C44.9219 26.2383 45.0911 28.5495 45.4297 29.8125C45.7682 31.0625 46.1914 31.8958 46.6992 32.3125C47.2201 32.7292 47.8125 32.9375 48.4766 32.9375C49.1406 32.9375 49.7331 32.7292 50.2539 32.3125C50.7747 31.8828 51.1784 31.1211 51.4648 30.0273C51.8424 28.6211 52.0312 26.2383 52.0312 22.8789C52.0312 19.5195 51.862 17.2148 51.5234 15.9648C51.1849 14.7018 50.7552 13.862 50.2344 13.4453C49.7266 13.0156 49.1406 12.8008 48.4766 12.8008Z" fill="#C8170B"/>
</svg>
