<svg width="75" height="46" viewBox="0 0 75 46" fill="none" xmlns="http://www.w3.org/2000/svg">
<path d="M24.3359 31.9023V37H5.09766C5.30599 35.0729 5.93099 33.25 6.97266 31.5312C8.01432 29.7995 10.0716 27.5078 13.1445 24.6562C15.6185 22.3516 17.1354 20.7891 17.6953 19.9688C18.4505 18.8359 18.8281 17.7161 18.8281 16.6094C18.8281 15.3854 18.4961 14.4479 17.832 13.7969C17.181 13.1328 16.276 12.8008 15.1172 12.8008C13.9714 12.8008 13.0599 13.1458 12.3828 13.8359C11.7057 14.526 11.3151 15.6719 11.2109 17.2734L5.74219 16.7266C6.06771 13.7057 7.08984 11.5378 8.80859 10.2227C10.5273 8.90755 12.6758 8.25 15.2539 8.25C18.0794 8.25 20.2995 9.01172 21.9141 10.5352C23.5286 12.0586 24.3359 13.9531 24.3359 16.2188C24.3359 17.5078 24.1016 18.7383 23.6328 19.9102C23.1771 21.069 22.4479 22.2865 21.4453 23.5625C20.7812 24.4089 19.5833 25.6263 17.8516 27.2148C16.1198 28.8034 15.0195 29.8581 14.5508 30.3789C14.0951 30.8997 13.724 31.4076 13.4375 31.9023H24.3359Z" fill="#050809"/>
<path d="M37.3438 8.25C40.1172 8.25 42.2852 9.23958 43.8477 11.2188C45.7096 13.5625 46.6406 17.4492 46.6406 22.8789C46.6406 28.2956 45.7031 32.1888 43.8281 34.5586C42.2786 36.5117 40.1172 37.4883 37.3438 37.4883C34.5573 37.4883 32.3112 36.4206 30.6055 34.2852C28.8997 32.1367 28.0469 28.3151 28.0469 22.8203C28.0469 17.4297 28.9844 13.5495 30.8594 11.1797C32.4089 9.22656 34.5703 8.25 37.3438 8.25ZM37.3438 12.8008C36.6797 12.8008 36.0872 13.0156 35.5664 13.4453C35.0456 13.862 34.6419 14.6172 34.3555 15.7109C33.9779 17.1302 33.7891 19.5195 33.7891 22.8789C33.7891 26.2383 33.9583 28.5495 34.2969 29.8125C34.6354 31.0625 35.0586 31.8958 35.5664 32.3125C36.0872 32.7292 36.6797 32.9375 37.3438 32.9375C38.0078 32.9375 38.6003 32.7292 39.1211 32.3125C39.6419 31.8828 40.0456 31.1211 40.332 30.0273C40.7096 28.6211 40.8984 26.2383 40.8984 22.8789C40.8984 19.5195 40.7292 17.2148 40.3906 15.9648C40.0521 14.7018 39.6224 13.862 39.1016 13.4453C38.5938 13.0156 38.0078 12.8008 37.3438 12.8008Z" fill="#C8170B"/>
<path d="M59.6094 8.25C62.3828 8.25 64.5508 9.23958 66.1133 11.2188C67.9753 13.5625 68.9062 17.4492 68.9062 22.8789C68.9062 28.2956 67.9688 32.1888 66.0938 34.5586C64.5443 36.5117 62.3828 37.4883 59.6094 37.4883C56.8229 37.4883 54.5768 36.4206 52.8711 34.2852C51.1654 32.1367 50.3125 28.3151 50.3125 22.8203C50.3125 17.4297 51.25 13.5495 53.125 11.1797C54.6745 9.22656 56.8359 8.25 59.6094 8.25ZM59.6094 12.8008C58.9453 12.8008 58.3529 13.0156 57.832 13.4453C57.3112 13.862 56.9076 14.6172 56.6211 15.7109C56.2435 17.1302 56.0547 19.5195 56.0547 22.8789C56.0547 26.2383 56.224 28.5495 56.5625 29.8125C56.901 31.0625 57.3242 31.8958 57.832 32.3125C58.3529 32.7292 58.9453 32.9375 59.6094 32.9375C60.2734 32.9375 60.8659 32.7292 61.3867 32.3125C61.9076 31.8828 62.3112 31.1211 62.5977 30.0273C62.9753 28.6211 63.1641 26.2383 63.1641 22.8789C63.1641 19.5195 62.9948 17.2148 62.6562 15.9648C62.3177 14.7018 61.888 13.862 61.3672 13.4453C60.8594 13.0156 60.2734 12.8008 59.6094 12.8008Z" fill="#1795EE"/>
</svg>
