<svg width="24" height="24" viewBox="0 0 24 24" fill="none" xmlns="http://www.w3.org/2000/svg">
<path d="M10.5035 3.77261L11.4945 2.80673C11.9141 2.39776 12.5926 2.39776 13.0077 2.80673L21.6853 11.2604C22.1049 11.6693 22.1049 12.3307 21.6853 12.7353L13.0077 21.1933C12.5881 21.6022 11.9096 21.6022 11.4945 21.1933L10.5035 20.2274C10.0795 19.8141 10.0884 19.1397 10.5214 18.7351L15.9002 13.7403L3.07131 13.7403C2.47763 13.7403 2 13.2748 2 12.6961L2 11.3039C2 10.7252 2.47763 10.2597 3.07131 10.2597L15.9002 10.2597L10.5214 5.26494C10.0839 4.86032 10.075 4.18594 10.5035 3.77261Z" fill="black"/>
</svg>
