<svg width="24" height="24" viewBox="0 0 24 24" fill="none" xmlns="http://www.w3.org/2000/svg">
<path d="M17.0884 6.55677C15.7018 5.25842 13.9023 4.5467 11.9933 4.54839C8.55762 4.5514 5.59161 6.90709 4.77269 10.1748C4.71308 10.4127 4.50115 10.5806 4.25591 10.5806H1.71425C1.38167 10.5806 1.12903 10.2787 1.19055 9.95187C2.15025 4.8555 6.62477 1 12 1C14.9473 1 17.6238 2.15926 19.5987 4.04651L21.1828 2.46238C21.8534 1.79178 23 2.26673 23 3.21513V9.16129C23 9.74921 22.5234 10.2258 21.9355 10.2258H15.9893C15.0409 10.2258 14.566 9.07919 15.2366 8.40854L17.0884 6.55677ZM2.06452 13.7742H8.01068C8.95908 13.7742 9.43403 14.9208 8.76343 15.5915L6.91161 17.4433C8.29823 18.7417 10.0978 19.4534 12.0069 19.4517C15.4408 19.4486 18.408 17.0945 19.2273 13.8253C19.2869 13.5874 19.4989 13.4194 19.7441 13.4194H22.2858C22.6184 13.4194 22.871 13.7214 22.8095 14.0482C21.8497 19.1445 17.3752 23 12 23C9.05271 23 6.37621 21.8407 4.40135 19.9535L2.81722 21.5376C2.14662 22.2082 1 21.7333 1 20.7849V14.8387C1 14.2508 1.47659 13.7742 2.06452 13.7742Z" fill="currentColor"/>
</svg>
