<svg width="24" height="24" viewBox="0 0 24 24" fill="none" xmlns="http://www.w3.org/2000/svg">
<path d="M12 12C14.6828 12 16.8571 9.76172 16.8571 7C16.8571 4.23828 14.6828 2 12 2C9.31719 2 7.14286 4.23828 7.14286 7C7.14286 9.76172 9.31719 12 12 12ZM15.4 13.25H14.7663C13.9239 13.6484 12.9866 13.875 12 13.875C11.0134 13.875 10.0799 13.6484 9.23371 13.25H8.6C5.78437 13.25 3.5 15.6016 3.5 18.5V20.125C3.5 21.1602 4.31585 22 5.32143 22H18.6786C19.6842 22 20.5 21.1602 20.5 20.125V18.5C20.5 15.6016 18.2156 13.25 15.4 13.25Z" fill="black"/>
</svg>
